<svg width="24" height="24" viewBox="0 0 24 24" fill="none" xmlns="http://www.w3.org/2000/svg">
<rect x="0.5" y="0.5" width="23" height="23" rx="11.5" stroke="black"/>
<path fill-rule="evenodd" clip-rule="evenodd" d="M12 5C12.6368 5 13.2191 5.28946 13.7192 5.7599C14.6565 6.64134 15.4987 8.17553 16.1863 9.7084C16.8854 11.2668 17.4664 12.9192 17.8554 14.1182C18.2868 15.4466 17.7225 16.8612 16.5689 17.5655C15.9712 17.9321 15.2658 18.0732 14.5763 17.964C13.8867 17.8548 13.2568 17.5024 12.7967 16.9683C12.5304 16.6581 12.2649 16.3473 12 16.0359C11.7278 16.3561 11.4556 16.6743 11.2027 16.9683C10.7426 17.5022 10.1128 17.8546 9.42341 17.9637C8.73398 18.0729 8.02879 17.932 7.43112 17.5655C6.2775 16.8612 5.71322 15.4466 6.14462 14.1182C6.53365 12.9192 7.11463 11.2668 7.81373 9.7084C8.50128 8.17553 9.34226 6.64134 10.2795 5.7599C10.7803 5.28946 11.3625 5 11.9994 5H12ZM12.8448 15.0323C13.2493 14.5455 13.5959 14.1169 13.7975 13.8431C14.401 13.0244 14.5557 11.9809 14.2559 11.1119C13.9439 10.2076 13.1472 9.53068 12 9.53068C10.8528 9.53068 10.0561 10.2076 9.74413 11.1119C9.44433 11.9809 9.5984 13.0244 10.2025 13.8431C10.4034 14.1169 10.7501 14.5455 11.1552 15.0323C10.847 15.3956 10.5312 15.7641 10.2372 16.1078C9.97528 16.4113 9.61684 16.6114 9.22461 16.6731C8.83237 16.7347 8.43133 16.654 8.0917 16.445C7.42791 16.0399 7.13004 15.2479 7.36371 14.5279C7.74568 13.3518 8.30997 11.7483 8.98147 10.2514C9.66388 8.72896 10.4182 7.40909 11.1513 6.71975C11.4826 6.40873 11.7682 6.3068 12 6.3068C12.2311 6.3068 12.5168 6.40873 12.8487 6.71975C13.5818 7.40909 14.3355 8.72961 15.0185 10.2514C15.69 11.7483 16.2543 13.3518 16.6363 14.5279C16.87 15.2479 16.5721 16.0392 15.9083 16.445C15.5687 16.6538 15.1678 16.7344 14.7757 16.6728C14.3836 16.6112 14.0253 16.4112 13.7635 16.1078C13.4682 15.7648 13.153 15.3956 12.8448 15.0323ZM12 14.0248C11.7356 13.7095 11.4787 13.3877 11.2296 13.0597C10.8701 12.5723 10.804 11.9822 10.9555 11.5445C11.0948 11.142 11.4216 10.8381 12 10.8381C12.5778 10.8381 12.9052 11.1413 13.0445 11.5451C13.1953 11.9829 13.1292 12.5723 12.7704 13.0597C12.5214 13.3878 12.2646 13.7096 12 14.0248Z" fill="black"/>
</svg>
