<svg width="24" height="24" viewBox="0 0 24 24" fill="none" xmlns="http://www.w3.org/2000/svg">
<rect x="0.5" y="0.5" width="23" height="23" rx="11.5" stroke="black"/>
<path d="M16.506 7.78001C16.4125 7.73462 16.3215 7.68488 16.2334 7.63095C15.9772 7.47192 15.7423 7.28455 15.5338 7.07287C15.0113 6.5119 14.8163 5.94284 14.7449 5.54479H14.7474C14.6877 5.21376 14.7123 5 14.7166 5H12.3384V13.6329C12.3384 13.7485 12.3384 13.8634 12.3334 13.9767C12.3334 13.9905 12.3316 14.0032 12.331 14.0188C12.331 14.0246 12.331 14.0316 12.3291 14.0379V14.0431C12.3042 14.3528 12.1985 14.6519 12.0215 14.9143C11.8444 15.1766 11.6014 15.3941 11.3138 15.5475C11.0138 15.7078 10.6745 15.7918 10.3293 15.7913C9.22172 15.7913 8.32333 14.9432 8.32333 13.8958C8.32333 12.8478 9.22172 11.9997 10.3293 11.9997C10.5391 11.9997 10.7477 12.0309 10.9471 12.0921L10.9502 9.81821C10.3447 9.74487 9.7296 9.79018 9.14371 9.95126C8.55783 10.1123 8.01387 10.3857 7.54617 10.7541C7.13628 11.0884 6.79165 11.4872 6.5278 11.9327C6.42751 12.095 6.04846 12.7484 6.00293 13.808C5.97401 14.4088 6.16661 15.0327 6.25829 15.2898V15.2956C6.31552 15.447 6.5395 15.9646 6.90377 16.4008C7.19753 16.7509 7.5446 17.0585 7.93383 17.3136V17.3078L7.93937 17.3136C9.09003 18.0473 10.3668 17.9994 10.3668 17.9994C10.5877 17.9907 11.328 17.9994 12.1685 17.6256C13.1007 17.2108 13.6312 16.5932 13.6312 16.5932C13.9703 16.2241 14.24 15.8035 14.4286 15.3493C14.644 14.8178 14.7154 14.1812 14.7154 13.927V9.34621C14.7443 9.36239 15.1289 9.60099 15.1289 9.60099C15.1289 9.60099 15.6827 9.93434 16.546 10.151C17.165 10.3052 18 10.3382 18 10.3382V8.12144C17.7077 8.15148 17.1139 8.06482 16.5054 7.78058L16.506 7.78001Z" fill="black"/>
</svg>
