<svg width="24" height="24" viewBox="0 0 24 24" fill="none" xmlns="http://www.w3.org/2000/svg">
<rect x="0.5" y="0.5" width="23" height="23" rx="11.5" stroke="black"/>
<path d="M12 8.91648C11.3907 8.91648 10.795 9.097 10.2884 9.4352C9.78178 9.7734 9.38691 10.2541 9.15373 10.8165C8.92056 11.3789 8.85955 11.9978 8.97842 12.5948C9.09729 13.1919 9.39071 13.7403 9.82156 14.1708C10.2524 14.6012 10.8014 14.8944 11.399 15.0131C11.9966 15.1319 12.616 15.0709 13.179 14.838C13.7419 14.605 14.2231 14.2105 14.5616 13.7044C14.9001 13.1982 15.0808 12.6031 15.0808 11.9944C15.0818 11.5899 15.0028 11.1892 14.8483 10.8153C14.6938 10.4415 14.4669 10.1018 14.1806 9.81577C13.8944 9.52976 13.5544 9.30309 13.1801 9.14876C12.8059 8.99443 12.4049 8.91549 12 8.91648ZM12 13.9987C11.6032 13.9987 11.2153 13.8812 10.8854 13.6609C10.5555 13.4407 10.2983 13.1277 10.1465 12.7614C9.99461 12.3952 9.95488 11.9921 10.0323 11.6033C10.1097 11.2145 10.3008 10.8574 10.5814 10.5771C10.8619 10.2967 11.2194 10.1058 11.6086 10.0285C11.9978 9.95116 12.4012 9.99086 12.7678 10.1426C13.1344 10.2943 13.4477 10.5512 13.6681 10.8808C13.8886 11.2104 14.0063 11.5979 14.0063 11.9944C14.0063 12.526 13.7949 13.0358 13.4186 13.4117C13.0424 13.7876 12.5321 13.9987 12 13.9987ZM15.9299 8.78886C15.9299 8.93734 15.8858 9.08248 15.8032 9.20593C15.7207 9.32939 15.6033 9.42561 15.466 9.48242C15.3287 9.53924 15.1776 9.55411 15.0319 9.52514C14.8861 9.49618 14.7522 9.42468 14.6471 9.31969C14.542 9.2147 14.4705 9.08094 14.4415 8.93532C14.4125 8.7897 14.4274 8.63876 14.4842 8.50158C14.5411 8.36441 14.6374 8.24717 14.761 8.16468C14.8846 8.08219 15.0298 8.03816 15.1785 8.03816C15.3777 8.03816 15.5689 8.11725 15.7098 8.25804C15.8507 8.39882 15.9299 8.58977 15.9299 8.78886ZM17.9662 9.53957C17.988 8.60631 17.6396 7.70229 16.9969 7.02471C16.3223 6.37437 15.417 6.01798 14.4796 6.03378C13.5028 5.98874 10.4972 5.98874 9.52035 6.03378C8.5865 6.01358 7.68223 6.36146 7.00313 7.00219C6.3604 7.67977 6.01196 8.58379 6.03381 9.51705C5.98873 10.493 5.98873 13.4958 6.03381 14.4717C6.01196 15.4049 6.3604 16.309 7.00313 16.9865C7.68223 17.6273 8.5865 17.9752 9.52035 17.955C10.5122 18.015 13.4878 18.015 14.4796 17.955C15.4138 17.9768 16.3187 17.6287 16.9969 16.9865C17.6396 16.309 17.988 15.4049 17.9662 14.4717C18.0113 13.4958 18.0113 10.493 17.9662 9.51705V9.53957ZM16.6888 15.5452C16.5868 15.8034 16.4328 16.0379 16.2363 16.2342C16.0398 16.4305 15.8051 16.5843 15.5466 16.6863C14.3802 16.9219 13.1876 17.0027 12 16.9265C10.8148 17.0028 9.6248 16.922 8.46086 16.6863C8.20243 16.5843 7.9677 16.4305 7.77123 16.2342C7.57476 16.0379 7.42074 15.8034 7.31872 15.5452C7.00313 14.7495 7.07076 12.8727 7.07076 12.0019C7.07076 11.1311 7.00313 9.24679 7.31872 8.45855C7.41787 8.19781 7.57078 7.96081 7.76755 7.76293C7.96431 7.56506 8.20053 7.41074 8.46086 7.30998C9.6248 7.07424 10.8148 6.99346 12 7.06975C13.1876 6.99359 14.3802 7.07436 15.5466 7.30998C15.8051 7.4119 16.0398 7.56578 16.2363 7.76206C16.4328 7.95834 16.5868 8.19285 16.6888 8.45105C17.0044 9.24679 16.9292 11.1236 16.9292 11.9944C16.9292 12.8652 17.0044 14.7495 16.6888 15.5377V15.5452Z" fill="black"/>
</svg>
